<?xml version="1.0" encoding="utf-8"?>
<!-- Generator: Adobe Illustrator 16.0.3, SVG Export Plug-In . SVG Version: 6.00 Build 0)  -->
<!DOCTYPE svg PUBLIC "-//W3C//DTD SVG 1.1//EN" "http://www.w3.org/Graphics/SVG/1.1/DTD/svg11.dtd">
<svg version="1.1" id="Capa_1" shaper:fusionaddin="version:1.6.10" xmlns:shaper="http://www.shapertools.com/namespaces/shaper"
	 xmlns="http://www.w3.org/2000/svg" xmlns:xlink="http://www.w3.org/1999/xlink" x="0px" y="0px" width="85px" height="90px"
	 viewBox="64.145 55.172 85 90" enable-background="new 64.145 55.172 85 90" xml:space="preserve">
<g id="XMLID_1_">
	<g>
		<polygon fill="none" stroke="#646464" stroke-width="0.9921" stroke-linecap="round" stroke-linejoin="round" points="
			97.499,97.156 98.845,95.928 100.048,94.887 101.132,94.001 102.113,93.243 103.839,92.041 105.335,91.136 106.675,90.422 
			107.902,89.84 110.127,88.934 112.113,88.271 113.894,87.768 115.534,87.383 117.059,87.086 120.025,86.682 123.24,86.509 
			126.833,86.578 130.442,86.913 132.107,87.185 133.64,87.526 135.007,87.923 136.21,88.389 137.274,88.941 138.197,89.578 
			138.997,90.334 139.672,91.197 140.677,93.15 140.974,94.161 141.139,95.159 141.147,96.121 141.008,97.057 140.282,98.868 
			139.128,100.56 137.744,102.017 136.178,103.241 134.397,104.318 132.519,105.255 130.87,105.957 130.211,106.21 129.691,106.414 
			129.313,106.582 129.082,106.719 128.991,106.836 129.058,106.942 129.585,107.146 130.063,107.289 130.673,107.48 
			132.206,108.065 133.888,108.909 135.412,109.974 136.755,111.332 137.941,113.031 138.848,115.01 139.31,117.149 
			139.326,119.382 138.964,121.645 138.164,123.842 136.937,125.83 135.453,127.537 133.763,128.937 131.793,130.117 
			129.511,131.115 127.038,131.945 124.492,132.54 121.888,132.839 119.308,132.839 116.942,132.628 115.921,132.485 
			115.039,132.337 114.331,132.201 113.795,132.082 113.137,131.933 112.823,131.939 112.658,132.162 112.551,132.628 
			112.46,133.278 112.328,133.967 112.04,134.587 111.496,135.071 110.614,135.381 109.398,135.51 107.919,135.473 106.37,135.312 
			104.998,135.052 103.984,134.686 103.403,134.16 103.267,133.731 103.229,133.075 103.295,132.088 103.461,130.717 
			103.704,128.944 104.013,126.843 104.729,122.172 105.096,119.86 105.447,117.664 105.777,115.624 106.086,113.72 
			106.646,110.236 107.156,106.935 107.622,103.724 108.034,100.791 108.208,99.513 108.355,98.385 108.468,97.411 108.554,96.585 
			108.615,95.897 108.67,95.345 108.801,94.577 109.094,94.105 109.671,93.765 110.532,93.467 111.586,93.225 112.823,93.065 
			114.224,93.001 115.649,93.082 116.877,93.33 117.742,93.702 118.229,94.212 118.336,94.577 118.377,95.073 118.36,95.73 
			118.295,96.554 118.18,97.53 118.031,98.601 117.669,100.859 117.479,101.926 117.307,102.876 117.165,103.679 117.059,104.331 
			116.993,104.826 116.967,105.193 117.051,105.622 117.396,105.758 118.162,105.684 118.756,105.572 119.489,105.411 
			121.376,104.933 123.586,104.264 125.843,103.413 127.928,102.383 129.716,101.236 131.134,100.066 132.156,98.911 
			132.808,97.747 133.112,96.548 133.104,95.328 132.799,94.124 132.197,92.984 131.291,91.924 130.047,90.943 128.431,90.118 
			126.42,89.529 125.25,89.349 123.965,89.25 122.563,89.231 121.055,89.294 117.841,89.666 114.545,90.341 111.339,91.285 
			108.314,92.438 105.554,93.79 103.152,95.297 101.141,96.842 99.53,98.236 98.878,98.793 98.335,99.209 97.918,99.42 
			97.646,99.352 97.568,99.147 97.523,98.762 97.502,98.136 		"/>
		<polygon fill="none" stroke="#646464" stroke-width="1.4173" stroke-linecap="round" stroke-linejoin="round" points="
			112.971,129.068 113.251,127.392 113.499,125.863 113.722,124.466 113.927,123.195 114.272,120.988 114.569,119.171 
			114.8,117.676 114.998,116.448 115.146,115.45 115.278,114.626 115.394,113.95 115.476,113.39 115.625,112.542 115.739,111.933 
			115.831,111.488 115.987,110.912 116.119,110.583 116.399,110.211 116.812,109.93 117.471,109.658 118.418,109.398 
			119.597,109.181 122.151,108.982 123.42,109.063 124.765,109.31 126.223,109.796 127.739,110.563 129.148,111.656 
			130.276,113.068 131.052,114.774 131.479,116.647 131.646,118.526 131.629,120.257 131.382,121.818 130.862,123.276 
			130.063,124.645 129.032,125.925 127.756,127.077 126.174,128.095 124.277,128.937 122.144,129.539 119.844,129.881 
			117.421,130.004 114.933,129.868 113.812,129.613 113.333,129.389 		"/>
	</g>
</g>
<g id="XMLID_2_">
	<g>
		<polygon fill="none" stroke="#646464" stroke-width="0.9921" stroke-linecap="round" stroke-linejoin="round" points="
			101.932,122.873 100.584,124.387 99.262,125.781 98.026,126.991 96.905,127.982 95.907,128.764 95.017,129.366 94.223,129.819 
			93.497,130.172 92.187,130.636 90.988,130.885 89.83,130.971 88.692,130.922 86.497,130.513 84.543,129.769 83.682,129.266 
			82.904,128.672 82.21,127.952 81.597,127.084 81.069,126.035 80.649,124.77 80.349,123.252 80.175,121.466 80.134,119.4 
			80.213,117.093 80.406,114.595 80.703,111.983 81.111,109.374 81.629,106.843 82.248,104.449 82.94,102.223 83.686,100.145 
			84.457,98.236 85.244,96.499 86.047,94.961 86.879,93.634 87.77,92.511 88.737,91.589 89.785,90.839 90.881,90.237 91.968,89.771 
			93.016,89.424 94.028,89.199 95.06,89.095 96.146,89.115 97.309,89.263 98.507,89.529 100.782,90.329 101.754,90.756 
			102.579,91.116 103.246,91.364 103.766,91.489 104.157,91.502 104.433,91.42 104.688,91.05 104.574,90.434 104.363,90.006 
			104.029,89.486 103.543,88.879 102.872,88.209 101.985,87.514 100.914,86.844 99.723,86.242 98.487,85.752 97.268,85.392 
			96.072,85.164 93.633,85.047 90.906,85.282 89.41,85.524 87.848,85.869 86.262,86.337 84.684,86.93 83.158,87.669 81.721,88.536 
			80.385,89.523 79.162,90.645 78.045,91.924 77.023,93.38 76.092,94.991 75.256,96.703 74.525,98.422 73.903,100.058 
			73.385,101.584 72.939,103.004 72.203,105.701 71.888,107.115 71.613,108.635 71.387,110.298 71.225,112.083 71.147,115.853 
			71.237,117.72 71.415,119.486 71.667,121.124 71.988,122.612 72.379,123.97 72.841,125.218 73.987,127.499 75.466,129.583 
			76.348,130.525 77.32,131.369 78.382,132.094 79.52,132.696 80.711,133.168 81.959,133.52 83.266,133.756 84.633,133.881 
			86.067,133.899 87.539,133.801 89.026,133.59 90.48,133.266 91.878,132.845 93.18,132.337 95.496,131.101 96.551,130.351 
			97.593,129.47 98.656,128.41 99.751,127.115 100.828,125.627 101.734,124.137 102.051,123.506 102.221,123.034 102.196,122.793 		
			"/>
		<path fill="none" stroke="#646464" stroke-width="0.9921" stroke-linecap="round" stroke-linejoin="round" d="M110.977,71.905
			v3.014h28.021c0.378,0,0.675,0.223,0.675,0.504c0,0.278-0.297,0.508-0.675,0.508h-28.021v4.147h-2.935v1.669h-0.563l-0.124,0.422
			l-0.363,0.242l-1.084,0.211l-0.861,0.13l-0.412,0.148l0.024,0.137l0.462,0.081l0.872,0.011l1.213-0.042l1.371-0.05l1.282,0.05
			l0.984,0.185l0.651,0.298l0.337,0.378v0.44l-0.393,0.423l-0.865,0.323l-1.348,0.204l-1.676,0.143l-1.678,0.123l-1.35,0.125
			l-0.862,0.167l-0.454,0.23l-0.186,0.26l0.034,0.261l0.267,0.223l0.573,0.148l0.994,0.055l1.293-0.034l1.137-0.026l0.792,0.129
			l0.333,0.174l0.306,0.292l0.135,0.429l-0.127,0.284l-0.387,0.344l-0.998,0.148l-0.523,0.11l-0.428,0.2l-0.314,0.32l-0.198,0.452
			l-0.098,0.596l-0.033,0.757l-0.198,0.317l-0.19,0.073l-0.226-0.048l-0.067-0.684V90.36l0.137-0.787l0.239-0.503l0.28-0.315
			l0.577-0.328l0.534-0.132l0.809-0.11l0.391-0.155l-0.012-0.225l-0.449-0.155l-0.914-0.018l-1.224,0.013l-1.183-0.062l-0.927-0.155
			l-0.652-0.266l-0.33-0.479l0.058-0.576l0.43-0.466l0.362-0.171l0.503-0.139l0.684-0.112l0.865-0.099l2.027-0.181l1.793-0.153
			l0.663-0.082l0.499-0.105l0.557-0.26l0.114-0.304l-0.28-0.236l-0.725-0.124l-0.577-0.024h-0.75l-1.862,0.044l-0.903,0.013
			l-0.759-0.006l-0.601-0.043l-0.453-0.094l-0.321-0.148l-0.182-0.198l-0.012-0.237l0.161-0.235l0.33-0.21l0.473-0.167l1.183-0.212
			l0.544-0.143l0.35-0.266h-0.795v-1.669h-3.091v-4.147H74.634c-0.371,0-0.673-0.229-0.673-0.508c0-0.281,0.302-0.504,0.673-0.504
			h28.023v-3.014h3.824l0.037-0.726l0.187-0.571l0.535-0.85l0.704-0.587l0.878-0.398l1.005-0.233l1.109-0.107l2.299-0.073
			l0.948-0.068l0.716-0.137l0.528-0.217l0.429-0.279l0.494-0.677l0.116-0.682l0.049-0.54l0.264-0.248l0.215,0.037l0.197,0.148
			l0.23,0.585l-0.157,0.742l-0.518,0.732l-0.686,0.533l-0.213,0.153l-0.009,0.096l0.23,0.048l0.38,0.006l0.923-0.18l0.972-0.496
			l0.659-0.639l0.223-0.633l0.106-0.503l0.248-0.234l0.297,0.105l0.132,0.509l-0.124,0.756l-0.213,0.392l-0.371,0.391l-0.51,0.365
			l-0.645,0.316l-0.923,0.229l-1.317,0.124l-3.479,0.049l-1.664,0.05l-1.438,0.211l-0.637,0.226l-0.586,0.383l-0.47,0.671
			l-0.152,0.517l-0.059,0.704H110.977z"/>
		<path fill="none" stroke="#646464" stroke-width="0.9921" stroke-linecap="round" stroke-linejoin="round" d="M101.973,74.219
			c-0.675,0.005-1.236-0.404-1.244-0.911c-0.012-0.508,0.528-0.925,1.203-0.93c0.017,0,0.029,0,0.041,0V74.219z"/>
		<path fill="none" stroke="#646464" stroke-width="0.9921" stroke-linecap="round" stroke-linejoin="round" d="M111.661,74.219
			c0.676,0.005,1.228-0.404,1.244-0.911c0.008-0.508-0.527-0.925-1.203-0.93c-0.017,0-0.033,0-0.041,0V74.219z"/>
	</g>
</g>
</svg>
